<svg version="1.1" id="Layer_1" xmlns="http://www.w3.org/2000/svg" xmlns:xlink="http://www.w3.org/1999/xlink" x="0px" y="0px"
	 width="100%" viewBox="0 0 366 366" enable-background="new 0 0 366 366" xml:space="preserve">
<path fill="#FEFEFE" opacity="1.000000" stroke="none" 
	d="
M367.000000,138.000000 
	C367.000000,214.310501 367.000000,290.621002 367.000000,366.965759 
	C245.059341,366.965759 123.118668,366.965759 1.088999,366.965759 
	C1.088999,245.095886 1.088999,123.191689 1.088999,1.143744 
	C122.999886,1.143744 244.999924,1.143744 367.000000,1.143744 
	C367.000000,45.756142 367.000000,90.409409 366.619812,135.453583 
	C364.826752,131.216736 363.889404,126.361786 361.826630,122.044571 
	C360.544189,119.360519 357.921082,116.599129 355.234619,115.504173 
	C352.505646,114.391853 350.015472,116.501884 348.127594,119.388908 
	C343.102783,127.073181 338.885925,135.316452 331.474579,141.383514 
	C328.603088,143.734207 326.552277,144.440048 323.969788,143.625900 
	C323.969788,141.593887 323.969788,140.136169 323.969788,138.678436 
	C322.660919,139.208939 321.391510,139.949310 320.031006,140.205078 
	C318.895142,140.418610 317.432007,140.445328 316.492401,139.901123 
	C309.407959,135.797745 307.394592,125.737839 311.700867,118.759895 
	C315.276093,112.966560 318.759918,107.026108 321.399780,100.777191 
	C323.256378,96.382332 320.476227,92.345177 316.078735,92.128342 
	C311.642273,91.909584 307.170959,92.527779 302.712219,92.592812 
	C298.676056,92.651695 296.328583,94.725792 294.914429,98.528755 
	C294.777283,98.715141 294.320618,98.790314 294.177490,98.445007 
	C293.014526,98.077576 291.692596,97.626808 291.021606,98.099678 
	C284.338928,102.809235 278.166168,108.254166 274.881500,115.819557 
	C273.474945,119.059128 274.309875,123.271881 274.151672,127.409325 
	C274.267365,128.252945 274.357758,128.729675 274.310455,129.212036 
	C274.172791,129.217682 274.000916,129.002274 273.661743,129.041656 
	C270.343079,131.049194 270.815887,133.067825 273.275391,135.535477 
	C273.302002,137.924347 273.287598,139.892654 272.977051,142.051865 
	C273.154266,143.141922 273.627655,144.041061 274.208008,144.842163 
	C274.314972,144.744110 274.603790,144.772400 274.458923,145.150116 
	C274.302490,146.336136 274.290894,147.144455 273.960083,148.151855 
	C273.473938,148.805161 273.068085,149.327515 273.175323,149.703506 
	C275.249634,156.975311 276.359192,164.208252 273.155304,171.504379 
	C272.899048,172.087936 273.792847,173.176544 274.113922,174.374969 
	C274.096405,175.173019 274.117188,175.626556 274.009369,176.149017 
	C273.880737,176.217941 273.588867,176.218948 273.154266,176.159241 
	C271.481567,176.793518 269.773010,177.180038 269.084686,178.233292 
	C265.639984,183.504303 262.522095,188.987457 259.167572,194.319427 
	C257.345825,197.215073 255.281311,199.957993 253.326309,202.769806 
	C252.311218,205.391052 250.686356,207.599915 249.577087,210.042908 
	C246.779831,216.203354 240.801208,220.931992 241.210571,228.688339 
	C241.225174,228.846252 240.944901,228.994705 240.556488,228.990112 
	C238.784058,230.462555 237.452042,231.992706 236.006958,233.407333 
	C230.042297,239.246155 226.079269,246.284424 224.867661,254.468430 
	C224.017761,260.209229 220.776901,266.881958 228.343903,271.087708 
	C228.956696,271.428314 229.382553,272.438385 229.539810,273.209839 
	C230.379578,277.329254 233.094681,278.452118 237.078690,278.280029 
	C237.405167,278.740387 237.527405,278.930389 237.429184,279.227356 
	C236.808899,279.605103 236.409088,279.875854 235.516449,280.077576 
	C232.206879,279.727417 229.390137,279.446289 226.252625,279.125610 
	C224.220322,277.236420 222.508804,275.386780 220.837463,273.171997 
	C220.275284,272.197174 219.672913,271.587433 218.812317,270.820953 
	C218.395599,270.099426 218.237137,269.534637 218.319122,268.755737 
	C217.797958,266.690674 217.036346,264.839752 216.126724,262.579315 
	C216.100632,260.451996 216.222534,258.734161 216.665527,256.932068 
	C217.341660,254.905136 217.696686,252.962433 218.022003,250.717377 
	C218.466675,249.546249 218.941086,248.677460 219.721222,247.787323 
	C220.343506,246.842499 220.660049,245.919022 221.009399,244.686172 
	C221.868500,243.199417 222.694824,242.022018 223.913467,240.772034 
	C224.780319,239.578674 225.254883,238.457916 225.744141,237.052826 
	C226.198822,236.188095 226.638809,235.607712 227.438904,234.983353 
	C228.837311,232.897293 229.875580,230.855209 230.924744,228.528229 
	C231.288315,227.825684 231.640976,227.408066 232.377106,227.000000 
	C234.044830,226.859467 235.329056,226.709381 237.892715,226.409744 
	C235.718964,225.086945 234.785080,224.518646 233.910706,223.607635 
	C235.349991,221.188385 236.729767,219.111832 238.466766,216.954529 
	C239.135132,216.041916 239.446274,215.210037 239.786835,214.080475 
	C240.511627,212.842377 241.207016,211.901947 242.294937,210.934769 
	C243.377365,209.396057 244.067245,207.884109 244.753082,206.248596 
	C244.749039,206.125046 244.961029,205.997757 245.338928,205.934052 
	C246.044891,205.015320 246.372955,204.160294 246.718262,203.046921 
	C246.958984,202.535034 247.182480,202.281494 247.606918,202.016174 
	C247.890594,201.676361 247.973328,201.348343 248.113464,200.678955 
	C250.813873,196.226562 253.456879,192.115524 256.418762,187.977692 
	C257.150024,186.964600 257.562408,185.978302 258.026520,184.646667 
	C259.675354,181.426208 261.272430,178.551056 263.029663,175.736237 
	C263.189819,175.796585 263.531616,175.814789 263.747437,175.831650 
	C264.092407,175.793243 264.221619,175.737991 264.350800,175.682724 
	C264.236786,175.457199 264.122803,175.231674 264.043762,174.641724 
	C264.905670,171.177826 265.732574,168.078339 266.720154,164.564148 
	C266.737366,162.106659 266.593842,160.063889 266.577606,157.705017 
	C266.762756,156.939728 266.820618,156.490540 267.117310,155.909973 
	C267.036285,155.179886 266.716370,154.581146 266.225037,153.661057 
	C265.857178,152.899246 265.660828,152.458801 265.573914,151.705505 
	C265.716156,150.953491 265.748962,150.514313 266.035034,149.944489 
	C265.961090,149.204483 265.633911,148.595123 265.138550,147.645996 
	C264.934235,146.557510 264.898102,145.808807 265.101654,144.928818 
	C265.041260,144.190750 264.741180,143.583984 264.255493,142.661438 
	C263.869110,141.903870 263.668304,141.462067 263.575928,140.634155 
	C263.746277,139.184799 263.808228,138.121536 264.148010,136.875977 
	C264.235748,135.773712 264.045685,134.853760 263.761414,133.501160 
	C263.680817,131.012680 263.694397,128.956833 263.856323,126.955009 
	C264.004639,127.009018 264.307312,127.098961 264.585541,127.027985 
	C264.856873,126.280510 264.849945,125.604019 264.792419,124.550110 
	C265.004547,122.443443 265.267365,120.714195 265.741943,118.708115 
	C266.023621,117.978523 266.093506,117.525772 266.368652,117.067245 
	C266.573944,117.061470 266.976410,116.979530 267.021729,117.129906 
	C267.161407,117.330345 267.255768,117.380409 267.350128,117.430481 
	C267.226501,117.278969 267.102875,117.127464 266.962708,116.647346 
	C267.547760,115.182838 268.149323,114.046944 269.061218,112.776047 
	C269.544250,112.015137 269.716949,111.389229 269.907898,110.484558 
	C270.278351,109.799324 270.630524,109.392845 271.351288,108.929161 
	C272.069092,108.046486 272.418304,107.221024 272.803223,106.088844 
	C273.830261,104.494492 274.821564,103.206841 276.195923,101.895477 
	C277.008209,100.806259 277.437408,99.740738 277.847961,98.381195 
	C277.825806,97.699448 277.822296,97.311714 277.959900,96.979439 
	C278.101013,97.034897 278.391846,97.120506 278.715637,96.999680 
	C279.251953,95.829826 279.464508,94.780800 279.650391,93.795471 
	C279.623688,93.859161 279.617554,93.721161 279.833130,93.748375 
	C280.165283,93.694809 280.281860,93.614021 280.398438,93.533234 
	C280.203003,93.354584 280.007538,93.175941 279.788635,92.589996 
	C280.010254,91.129852 280.255371,90.076996 280.790527,88.941368 
	C281.027222,87.897820 280.973938,86.937042 280.833130,85.518486 
	C280.786011,80.394135 280.826385,75.727570 281.156097,70.847427 
	C281.071960,69.085556 280.698486,67.537270 280.159119,65.741150 
	C279.875671,65.332962 279.758118,65.172615 279.731140,64.653824 
	C279.817078,63.558491 279.812469,62.821606 280.023926,61.980278 
	C279.926727,61.262543 279.613403,60.649261 279.137390,59.802582 
	C278.973267,59.379528 278.971802,59.189869 279.145111,58.882034 
	C279.070496,58.562565 278.821136,58.361267 278.372223,57.959763 
	C277.643066,56.770035 277.113434,55.780518 276.579407,54.460743 
	C276.303833,53.301449 276.032684,52.472412 275.752808,51.306999 
	C275.430389,50.678291 275.116669,50.385952 274.856873,50.090981 
	C274.910767,50.088356 274.840118,50.169941 274.893005,49.788071 
	C274.213776,48.638077 273.481659,47.869961 272.461060,46.951981 
	C269.737885,44.327621 267.303223,41.853119 264.790466,39.068657 
	C264.160492,38.499763 263.608612,38.240829 262.710571,37.911926 
	C255.672104,33.698948 248.359940,31.713709 240.519684,31.699471 
	C199.198990,31.624430 157.877365,31.389158 116.557877,31.586555 
	C93.423683,31.697075 76.497673,49.449417 76.506432,72.492424 
	C76.525368,122.310829 76.369492,172.129349 76.428421,221.947647 
	C76.453438,243.099030 76.574051,264.258606 77.265083,285.394409 
	C77.418076,290.073578 80.165245,294.667908 81.780037,299.196472 
	C81.842171,299.091614 81.669617,299.263763 81.707764,299.611084 
	C88.390068,311.982056 98.911125,318.685883 112.267639,319.377838 
	C129.142899,320.252045 146.091660,319.707336 163.413269,319.890350 
	C165.208771,319.928741 166.599716,319.851471 168.440308,319.904785 
	C173.262756,319.950592 177.635544,319.865875 182.449280,319.898376 
	C185.924438,319.937225 188.958664,319.858856 192.446106,319.911438 
	C209.150635,320.090515 225.408737,320.412628 241.648895,320.010376 
	C246.188400,319.897919 250.674988,317.648651 255.550598,316.387512 
	C257.941528,315.234619 259.967682,314.073792 262.338501,312.882874 
	C264.616333,311.167389 266.549469,309.482025 268.572266,307.726990 
	C268.661926,307.657349 268.812347,307.487244 269.084045,307.331421 
	C271.330231,304.814545 273.304688,302.453522 275.579590,300.028259 
	C276.299835,298.656281 276.719696,297.348541 277.174500,295.745422 
	C277.184143,295.056458 277.158752,294.662842 277.380890,294.134735 
	C277.855072,293.701385 278.081726,293.402496 278.580322,293.054962 
	C278.880951,292.336243 278.909637,291.666168 278.968628,290.662659 
	C278.973816,289.884949 278.948730,289.440674 279.094147,288.760376 
	C279.325562,288.340057 279.386444,288.155762 279.770630,287.887817 
	C279.991180,286.189087 279.888397,284.574005 279.889893,282.568878 
	C279.946289,281.116882 279.898438,280.054993 279.999115,278.544952 
	C280.078278,267.065674 280.008881,256.034485 280.110291,244.628174 
	C280.237152,243.165390 280.193237,242.077759 280.335022,240.796814 
	C280.616272,240.452499 280.711792,240.301498 281.030396,240.054306 
	C281.190979,239.311722 281.128510,238.665329 281.049225,237.624603 
	C281.240112,236.207260 281.447845,235.184219 281.893372,234.085709 
	C282.151245,233.338959 282.171326,232.667694 282.216492,231.646240 
	C283.609802,228.572647 284.978088,225.849243 286.619507,223.132812 
	C287.244629,223.045502 287.596619,222.951233 288.127075,223.113464 
	C291.026093,219.844116 293.746674,216.318283 296.467255,212.792450 
	C295.920471,212.507889 295.373657,212.223328 294.881439,211.559387 
	C294.865845,210.679001 294.795715,210.178040 294.841644,209.379898 
	C295.705383,208.087296 296.453033,207.091858 297.486572,206.231308 
	C302.203705,206.905380 300.635620,204.503922 299.728943,202.108902 
	C300.490051,200.862518 301.230652,199.923843 302.277679,199.125046 
	C303.645660,198.925980 304.707245,198.587036 305.768799,198.248093 
	C305.179291,197.497818 304.589783,196.747543 304.010742,195.680267 
	C304.858429,194.441498 305.695618,193.519714 306.846283,192.628769 
	C307.460785,192.158295 307.761810,191.656998 308.231384,190.905060 
	C308.911560,190.360962 309.423248,190.067505 309.978271,190.117783 
	C313.202850,191.645752 322.909088,186.679443 323.940552,183.382889 
	C324.065033,183.362335 324.234711,183.549072 324.583313,183.622253 
	C325.293915,183.420959 325.655884,183.146469 326.271057,182.670029 
	C326.944092,182.393829 327.363922,182.319550 327.892883,182.602295 
	C329.033905,183.391861 330.223480,184.389450 331.068909,184.153564 
	C333.876038,183.370346 336.559479,182.143600 339.290161,181.086502 
	C340.337433,180.681091 341.604584,180.523773 342.393951,179.826172 
	C346.229858,176.436295 349.901154,172.861084 353.698944,169.426910 
	C360.450439,163.321808 362.866333,155.336761 364.094208,146.667709 
	C364.514435,143.700806 366.000763,140.884888 367.000000,138.000000 
M24.421209,108.080147 
	C23.952990,109.393509 23.484772,110.706871 22.934504,112.660904 
	C22.298933,113.776268 21.663364,114.891632 20.381977,116.063423 
	C20.214363,117.033600 20.046751,118.003769 19.916258,119.655502 
	C19.946936,120.108940 19.977613,120.562378 20.095819,121.720093 
	C22.824896,124.114197 24.288469,123.093658 25.256517,119.410889 
	C25.854536,118.649086 26.452555,117.887291 27.571938,117.030731 
	C27.908878,116.925049 28.245821,116.819366 29.337793,116.856346 
	C30.184629,115.847298 31.031466,114.838242 32.213173,113.363121 
	C32.835793,112.928947 33.458412,112.494766 34.790775,112.053284 
	C36.589931,110.441650 38.389088,108.830009 40.874641,107.075920 
	C42.558952,105.344437 44.243263,103.612961 46.171864,101.480934 
	C46.383797,101.239059 46.643452,101.070869 47.688568,101.013382 
	C52.851166,97.067230 58.154274,93.282387 63.044041,89.023026 
	C63.902393,88.275330 63.699425,85.061852 62.816696,83.816193 
	C60.831783,81.015205 48.951843,81.298973 45.224056,83.917885 
	C44.521606,83.863701 43.819160,83.809517 43.061634,82.918625 
	C42.943409,81.497864 42.825180,80.077103 42.766171,78.290611 
	C42.766171,78.290611 42.923389,77.955147 43.635757,77.899963 
	C44.602287,75.779442 45.568813,73.658928 46.639473,71.014854 
	C46.765793,70.682632 46.892117,70.350418 47.738010,69.947853 
	C49.702778,66.863914 54.659134,65.079460 52.015118,59.361881 
	C51.992748,58.929138 51.970379,58.496391 51.893673,57.322475 
	C47.892754,55.177116 41.305046,59.421791 40.000000,65.000000 
	C40.000000,65.000000 39.990868,64.992172 39.261303,64.971985 
	C37.519230,66.669182 35.777161,68.366371 33.803852,70.475822 
	C33.604103,70.731148 33.352325,70.915344 32.308331,70.988914 
	C30.887434,72.353676 29.466539,73.718430 27.736931,75.589172 
	C26.945414,76.154724 26.153898,76.720268 24.623615,77.151695 
	C23.094204,78.791374 21.564793,80.431053 19.683508,82.588341 
	C18.730637,83.694038 17.777765,84.799728 16.381535,85.938515 
	C16.381535,85.938515 15.938205,85.972008 15.231283,85.944878 
	C14.498886,86.651962 13.766489,87.359055 12.694404,88.597359 
	C11.447329,89.721230 10.200254,90.845100 8.267475,92.071739 
	C7.949448,92.713150 7.631422,93.354568 7.313395,93.995979 
	C8.012733,94.216820 8.712072,94.437660 10.189832,94.795135 
	C11.771621,94.907921 13.353409,95.020706 15.037337,95.693985 
	C15.713546,95.508904 16.389755,95.323814 17.685791,95.069733 
	C18.099947,95.096489 18.514101,95.123238 19.037491,95.703545 
	C19.718025,95.523956 20.398560,95.344368 21.933693,95.078072 
	C23.937370,95.086647 25.941050,95.095215 27.982073,95.906784 
	C27.105595,99.726952 26.229116,103.547112 25.224512,107.704430 
	C25.224512,107.704430 25.082563,108.038124 24.421209,108.080147 
z"/>
<path fill="#F1F6F4" opacity="1.000000" stroke="none" 
	d="
M295.051575,98.342361 
	C296.328583,94.725792 298.676056,92.651695 302.712219,92.592812 
	C307.170959,92.527779 311.642273,91.909584 316.078735,92.128342 
	C320.476227,92.345177 323.256378,96.382332 321.399780,100.777191 
	C318.759918,107.026108 315.276093,112.966560 311.700867,118.759895 
	C307.394592,125.737839 309.407959,135.797745 316.492401,139.901123 
	C317.432007,140.445328 318.895142,140.418610 320.031006,140.205078 
	C321.391510,139.949310 322.660919,139.208939 323.969788,138.678436 
	C323.969788,140.136169 323.969788,141.593887 323.969788,143.625900 
	C326.552277,144.440048 328.603088,143.734207 331.474579,141.383514 
	C338.885925,135.316452 343.102783,127.073181 348.127594,119.388908 
	C350.015472,116.501884 352.505646,114.391853 355.234619,115.504173 
	C357.921082,116.599129 360.544189,119.360519 361.826630,122.044571 
	C363.889404,126.361786 364.826752,131.216736 366.619812,135.922241 
	C367.000000,136.444443 367.000000,136.888901 367.000000,137.666672 
	C366.000763,140.884888 364.514435,143.700806 364.094208,146.667709 
	C362.866333,155.336761 360.450439,163.321808 353.698944,169.426910 
	C349.901154,172.861084 346.229858,176.436295 342.393951,179.826172 
	C341.604584,180.523773 340.337433,180.681091 339.290161,181.086502 
	C336.559479,182.143600 333.876038,183.370346 331.068909,184.153564 
	C330.223480,184.389450 329.033905,183.391861 328.154297,182.395401 
	C330.045135,181.259338 331.792633,180.713104 333.520721,180.111038 
	C355.648651,172.401810 367.484436,149.800079 360.860962,127.299103 
	C359.956573,124.226768 357.331146,121.661041 355.502563,118.860748 
	C352.932953,120.943268 349.934235,122.674606 347.882904,125.181252 
	C343.580048,130.439240 340.341187,136.682709 335.546265,141.378784 
	C332.828247,144.040787 327.810211,145.837936 323.972870,145.607941 
	C309.913025,144.765320 302.583344,130.406952 309.548035,118.308693 
	C312.366882,113.412048 315.691345,108.795967 318.344330,103.817024 
	C321.478943,97.934166 319.222137,94.164551 312.529633,94.750435 
	C306.643921,95.265694 300.873108,97.093964 295.051575,98.342361 
z"/>
<path fill="#42306D" opacity="1.000000" stroke="none" 
	d="
M244.961029,205.997757 
	C244.961029,205.997757 244.749039,206.125046 244.452713,206.427444 
	C243.405060,208.140396 242.653717,209.550964 241.902390,210.961517 
	C241.207016,211.901947 240.511627,212.842377 239.504669,214.252960 
	C238.831909,215.493851 238.470734,216.264572 238.109558,217.035278 
	C236.729767,219.111832 235.349991,221.188385 233.638306,223.757385 
	C232.868790,225.163361 232.431198,226.076904 231.993622,226.990448 
	C231.640976,227.408066 231.288315,227.825684 230.624847,228.686615 
	C229.235611,231.095718 228.157196,233.061523 227.078766,235.027328 
	C226.638809,235.607712 226.198822,236.188095 225.440811,237.242401 
	C224.588913,238.759094 224.055038,239.801865 223.521164,240.844635 
	C222.694824,242.022018 221.868500,243.199417 220.717194,244.855347 
	C220.066635,246.158798 219.741058,246.983719 219.415482,247.808655 
	C218.941086,248.677460 218.466675,249.546249 217.739670,250.931610 
	C217.106171,253.304230 216.725296,255.160278 216.344421,257.016327 
	C216.222534,258.734161 216.100632,260.451996 216.037994,262.936584 
	C216.757736,265.458832 217.418213,267.214355 218.078690,268.969879 
	C218.237137,269.534637 218.395599,270.099426 218.838776,271.145447 
	C219.681427,272.263550 220.239349,272.900360 220.797272,273.537140 
	C222.508804,275.386780 224.220322,277.236420 226.459656,279.419800 
	C229.935165,281.252228 232.882568,282.757324 236.009293,280.146637 
	C236.409088,279.875854 236.808899,279.605103 237.760101,279.267151 
	C242.347534,278.900543 246.447144,278.927521 250.391937,278.159454 
	C252.271027,277.793549 254.282181,276.237152 255.480026,274.651031 
	C257.623993,271.812195 259.021271,268.421356 261.044617,265.477051 
	C266.104828,258.113647 269.353882,249.387970 277.322845,244.108643 
	C278.383759,244.493729 279.161621,244.748520 279.939514,245.003311 
	C280.008881,256.034485 280.078278,267.065674 279.669189,278.609375 
	C279.130432,280.416077 279.070099,281.710297 278.991211,283.367615 
	C279.130890,285.144318 279.289093,286.557892 279.447296,287.971497 
	C279.386444,288.155762 279.325562,288.340057 278.744202,288.802521 
	C275.070282,290.223816 276.149323,292.256500 277.133362,294.269196 
	C277.158752,294.662842 277.184143,295.056458 276.935791,295.713867 
	C276.662109,295.977600 276.192383,296.083618 275.829956,296.093567 
	C273.249146,299.898102 271.030762,303.692657 268.812347,307.487244 
	C268.812347,307.487244 268.661926,307.657349 268.235443,307.524475 
	C265.870575,309.232086 263.932220,311.072510 261.993835,312.912964 
	C259.967682,314.073792 257.941528,315.234619 255.336578,316.063538 
	C253.832581,315.659882 252.891663,315.442047 251.984589,315.539429 
	C244.623032,316.329895 237.284500,317.633728 229.906769,317.904663 
	C218.797974,318.312683 207.662231,317.943756 196.540390,318.089600 
	C195.017426,318.109558 193.508377,319.190643 191.992889,319.780457 
	C188.958664,319.858856 185.924438,319.937225 182.337769,319.522736 
	C177.112579,317.897034 172.417206,316.344604 167.990662,319.774231 
	C166.599716,319.851471 165.208771,319.928741 163.299683,319.513672 
	C161.242432,318.684509 159.709137,318.092499 158.163162,318.057312 
	C152.849106,317.936310 147.528046,318.115997 142.214340,317.987518 
	C131.456238,317.727356 120.666893,317.742676 109.959961,316.829315 
	C104.911911,316.398682 100.117363,314.785431 95.554413,311.228210 
	C91.119926,307.771149 86.624008,304.870270 83.935593,299.772217 
	C83.701302,299.327972 82.449028,299.420563 81.669617,299.263794 
	C81.669617,299.263763 81.842171,299.091614 81.867294,298.792114 
	C78.385429,289.011230 77.804253,279.157318 77.979630,269.168304 
	C78.376595,246.558395 78.883934,223.946838 78.917717,201.335312 
	C78.944534,183.388199 78.159729,165.441193 78.049271,147.492203 
	C77.887840,121.258568 77.997597,95.023170 78.031197,68.788582 
	C78.033295,67.148323 77.912621,65.256149 78.642471,63.911972 
	C81.882423,57.944977 84.778328,51.627621 88.979820,46.383270 
	C95.889252,37.758854 105.427231,33.064728 116.572395,33.082874 
	C136.685287,33.115616 156.796463,33.770542 176.910202,33.927597 
	C183.860809,33.981873 190.814499,33.124687 197.771027,33.042068 
	C210.594437,32.889778 223.431458,32.691013 236.242264,33.122200 
	C243.857819,33.378521 251.738953,33.278316 258.320099,38.582706 
	C262.757111,42.158936 268.338348,44.236282 270.933167,50.076000 
	C271.826935,52.087471 274.644867,53.243946 276.583832,54.791000 
	C277.113434,55.780518 277.643066,56.770035 278.373291,58.216553 
	C278.706055,58.782433 278.838196,58.891319 278.970367,59.000206 
	C278.971802,59.189869 278.973267,59.379528 279.049133,60.126137 
	C279.072449,61.125019 279.021393,61.566956 278.725037,62.188416 
	C278.866669,63.249390 279.253632,64.130836 279.640594,65.012276 
	C279.758118,65.172615 279.875671,65.332962 280.058319,66.150131 
	C280.084290,68.204300 280.045197,69.601639 279.704834,71.287003 
	C278.936035,77.584770 278.401428,83.590523 278.042419,89.606750 
	C277.936218,91.387115 278.325195,93.197037 278.512573,95.262131 
	C278.489197,96.060730 278.440521,96.590614 278.391846,97.120506 
	C278.391846,97.120506 278.101013,97.034897 277.603516,97.006813 
	C273.228607,102.678787 269.295929,108.343140 265.556763,114.132469 
	C265.169556,114.731979 265.933502,116.074989 266.163391,117.073021 
	C266.093506,117.525772 266.023621,117.978523 265.430115,118.801407 
	C264.603851,121.113815 264.301270,123.056099 264.063110,125.349228 
	C264.187469,126.166367 264.247375,126.632660 264.307312,127.098961 
	C264.307312,127.098961 264.004639,127.009018 263.512115,127.082695 
	C263.016205,129.438293 263.012787,131.720215 263.116028,134.368607 
	C263.154846,135.488434 263.087006,136.241776 262.758972,137.188812 
	C262.821686,138.595093 263.144592,139.807663 263.467499,141.020248 
	C263.668304,141.462067 263.869110,141.903870 264.139099,142.987427 
	C264.142426,144.084961 264.076569,144.540710 263.768524,145.165024 
	C264.172363,147.561829 264.818420,149.790085 265.464478,152.018341 
	C265.660828,152.458801 265.857178,152.899246 266.112061,153.983978 
	C266.125793,155.080811 266.080994,155.533371 265.813599,156.116638 
	C265.877441,156.838608 266.163879,157.429855 266.450317,158.021103 
	C266.593842,160.063889 266.737366,162.106659 266.392639,164.635376 
	C263.504486,168.240311 261.008728,171.331741 262.869507,175.675903 
	C261.272430,178.551056 259.675354,181.426208 257.738281,184.771393 
	C256.965515,186.162460 256.532715,187.083481 256.099854,188.004486 
	C253.456879,192.115524 250.813873,196.226562 247.890030,200.758850 
	C247.299805,201.404831 247.232056,201.687439 247.405960,202.027954 
	C247.182480,202.281494 246.958984,202.535034 246.427856,203.217743 
	C245.733810,204.430511 245.347412,205.214127 244.961029,205.997757 
M205.841904,46.277187 
	C204.361923,45.850967 202.870560,45.027809 201.404007,45.069855 
	C196.125412,45.221203 190.852493,45.973843 185.582413,45.927731 
	C176.817703,45.851044 168.058060,45.209572 159.293198,45.125149 
	C157.884476,45.111580 156.459793,46.753906 154.800720,48.240314 
	C152.915771,52.404526 154.952377,53.761177 158.792023,53.764259 
	C174.287079,53.776688 189.783356,53.862125 205.275452,53.648766 
	C206.972519,53.625397 208.645477,51.850758 210.329605,50.888390 
	C208.889557,49.616611 207.449509,48.344833 205.841904,46.277187 
M215.500092,68.297943 
	C182.175339,68.311615 148.850357,68.258080 115.525955,68.372368 
	C102.370972,68.417473 95.603325,75.486443 95.607758,88.552444 
	C95.624603,138.206558 95.629242,187.860672 95.621101,237.514786 
	C95.619026,250.182129 102.688385,257.326843 115.361626,257.340851 
	C135.523285,257.363159 155.696365,256.950104 175.843323,257.500305 
	C194.625626,258.013184 207.842834,250.330154 217.223557,234.105331 
	C228.475235,214.644547 240.390594,195.550339 252.549896,176.639038 
	C258.184662,167.875336 259.993469,159.305588 256.894531,149.234665 
	C253.589920,138.495331 253.687210,127.505791 257.588898,116.815582 
	C261.284119,106.690987 261.412201,96.208687 260.768433,85.716988 
	C260.045197,73.930161 253.692093,68.286781 241.993515,68.289833 
	C233.495712,68.292046 224.997894,68.295319 215.500092,68.297943 
M189.961243,301.534271 
	C190.651505,300.812927 191.396240,300.135803 192.023331,299.363190 
	C196.843338,293.424652 197.480545,285.288605 193.662384,278.796387 
	C190.015396,272.595215 182.462906,269.065826 175.321655,270.225464 
	C167.781586,271.449890 162.035400,276.979736 160.457809,284.529724 
	C159.012772,291.445374 161.981720,298.908722 168.007217,302.795349 
	C175.259598,307.473358 182.451126,307.037567 189.961243,301.534271 
z"/>
<path fill="#278145" opacity="1.000000" stroke="none" 
	d="
M294.914429,98.528748 
	C300.873108,97.093964 306.643921,95.265694 312.529633,94.750435 
	C319.222137,94.164551 321.478943,97.934166 318.344330,103.817024 
	C315.691345,108.795967 312.366882,113.412048 309.548035,118.308693 
	C302.583344,130.406952 309.913025,144.765320 323.972870,145.607941 
	C327.810211,145.837936 332.828247,144.040787 335.546265,141.378784 
	C340.341187,136.682709 343.580048,130.439240 347.882904,125.181252 
	C349.934235,122.674606 352.932953,120.943268 355.502563,118.860748 
	C357.331146,121.661041 359.956573,124.226768 360.860962,127.299103 
	C367.484436,149.800079 355.648651,172.401810 333.520721,180.111038 
	C331.792633,180.713104 330.045135,181.259338 328.045197,182.038391 
	C327.363922,182.319550 326.944092,182.393829 325.927490,182.635757 
	C324.965363,183.051971 324.600037,183.300522 324.234711,183.549072 
	C324.234711,183.549072 324.065033,183.362335 323.547455,183.369202 
	C318.664886,185.508728 314.299927,187.641388 309.934937,189.774048 
	C309.423248,190.067505 308.911560,190.360962 307.939453,190.927628 
	C307.163574,191.666519 306.848206,192.132233 306.532806,192.597931 
	C305.695618,193.519714 304.858429,194.441498 303.735565,195.840240 
	C302.957001,197.206528 302.464142,198.095840 301.971252,198.985168 
	C301.230652,199.923843 300.490051,200.862518 299.428833,202.252106 
	C298.472351,203.834137 297.836517,204.965286 297.200653,206.096420 
	C296.453033,207.091858 295.705383,208.087296 294.552307,209.491058 
	C293.831940,210.617249 293.517029,211.335114 292.969360,212.311722 
	C291.097931,215.299911 289.459290,218.029388 287.523865,220.858994 
	C286.933502,221.681366 286.639954,222.403610 286.346375,223.125854 
	C284.978088,225.849243 283.609802,228.572647 282.021576,231.648605 
	C281.801636,232.001160 281.420807,232.083618 281.054993,232.085266 
	C278.888733,233.944641 276.738129,235.573730 275.349609,237.700409 
	C269.890625,246.061508 264.634064,254.556000 259.374115,263.045441 
	C254.278091,271.270294 248.915344,278.989258 237.092987,276.747192 
	C235.299225,274.997559 233.830414,273.407654 232.239090,271.951630 
	C228.638885,268.657532 225.749176,264.678375 226.468475,259.779327 
	C227.129120,255.279724 228.797729,250.772766 230.825912,246.665924 
	C233.825897,240.591293 237.536728,234.867737 240.944901,228.994705 
	C240.944901,228.994705 241.225174,228.846252 241.522186,228.520142 
	C247.263229,219.491180 252.707260,210.788361 258.480530,202.020370 
	C259.106567,201.200363 259.403381,200.445496 259.836365,199.376907 
	C263.368378,193.737381 266.764221,188.411575 270.482819,183.024841 
	C271.091217,182.227921 271.376862,181.491959 271.694397,180.749390 
	C271.726288,180.742783 271.720062,180.677979 271.991852,180.630951 
	C272.266205,180.255096 272.268768,179.926285 272.421143,179.263947 
	C272.910248,178.026611 273.249573,177.122787 273.588867,176.218948 
	C273.588867,176.218948 273.880737,176.217941 274.352295,176.072632 
	C275.830841,173.746231 277.428070,171.637756 277.707336,169.367172 
	C278.133301,165.904282 277.647766,162.329285 277.439941,158.460907 
	C277.252045,157.409378 277.173431,156.698792 277.307495,155.861084 
	C277.240997,155.081146 276.961853,154.428345 276.549438,153.490601 
	C276.333557,152.797165 276.250854,152.388657 276.405914,151.744171 
	C275.963684,149.262939 275.283722,147.017670 274.603790,144.772400 
	C274.603790,144.772400 274.314972,144.744110 274.298706,144.481750 
	C274.259094,143.476852 274.235779,142.734299 274.450928,141.710114 
	C274.499969,139.287491 274.310547,137.146500 274.102173,134.576294 
	C274.055786,132.432144 274.028351,130.717209 274.000916,129.002274 
	C274.000916,129.002274 274.172791,129.217682 274.563751,129.143158 
	C274.987885,128.381836 275.021027,127.695045 275.083862,126.629211 
	C275.862244,123.888489 276.610962,121.526810 277.668213,119.052673 
	C278.168457,118.161232 278.360168,117.382240 278.645569,116.288071 
	C279.511597,114.659630 280.283875,113.346367 281.393616,111.980141 
	C282.039154,111.170677 282.347168,110.414177 282.737061,109.489197 
	C282.819000,109.320709 283.070679,109.043129 283.393555,109.008690 
	C284.109955,108.282524 284.503510,107.590797 284.948517,106.949387 
	C285.000000,106.999695 284.899017,106.897064 285.231140,106.900665 
	C286.023071,106.243156 286.482849,105.582047 287.168915,104.681229 
	C289.703674,102.557793 292.012146,100.674057 294.320618,98.790314 
	C294.320618,98.790314 294.777283,98.715141 294.914429,98.528748 
z"/>
<path fill="#4B3D6C" opacity="1.000000" stroke="none" 
	d="
M276.579407,54.460739 
	C274.644867,53.243946 271.826935,52.087471 270.933167,50.076000 
	C268.338348,44.236282 262.757111,42.158936 258.320099,38.582706 
	C251.738953,33.278316 243.857819,33.378521 236.242264,33.122200 
	C223.431458,32.691013 210.594437,32.889778 197.771027,33.042068 
	C190.814499,33.124687 183.860809,33.981873 176.910202,33.927597 
	C156.796463,33.770542 136.685287,33.115616 116.572395,33.082874 
	C105.427231,33.064728 95.889252,37.758854 88.979820,46.383270 
	C84.778328,51.627621 81.882423,57.944977 78.642471,63.911972 
	C77.912621,65.256149 78.033295,67.148323 78.031197,68.788582 
	C77.997597,95.023170 77.887840,121.258568 78.049271,147.492203 
	C78.159729,165.441193 78.944534,183.388199 78.917717,201.335312 
	C78.883934,223.946838 78.376595,246.558395 77.979630,269.168304 
	C77.804253,279.157318 78.385429,289.011230 81.805161,298.896973 
	C80.165245,294.667908 77.418076,290.073578 77.265083,285.394409 
	C76.574051,264.258606 76.453438,243.099030 76.428421,221.947647 
	C76.369492,172.129349 76.525368,122.310829 76.506432,72.492424 
	C76.497673,49.449417 93.423683,31.697075 116.557877,31.586555 
	C157.877365,31.389158 199.198990,31.624430 240.519684,31.699471 
	C248.359940,31.713709 255.672104,33.698948 262.832092,38.191471 
	C263.822662,38.820198 264.345612,39.099403 264.868561,39.378613 
	C267.303223,41.853119 269.737885,44.327621 272.528137,47.266788 
	C273.535828,48.544285 274.187988,49.357113 274.840118,50.169945 
	C274.840118,50.169941 274.910767,50.088356 274.890503,50.414192 
	C275.167328,51.041145 275.464417,51.342262 275.761536,51.643375 
	C276.032684,52.472412 276.303833,53.301449 276.579407,54.460739 
z"/>
<path fill="#EA8E30" opacity="1.000000" stroke="none" 
	d="
M28.582764,116.713692 
	C28.245821,116.819366 27.908878,116.925049 27.135834,116.779922 
	C25.817442,115.066277 24.935152,113.603447 24.134817,111.854256 
	C24.528149,111.062714 24.839527,110.557533 25.500744,109.993027 
	C26.427452,108.784393 27.004320,107.635086 27.598133,106.224869 
	C27.708769,105.628990 27.802464,105.294029 28.258335,104.945190 
	C31.645929,103.812569 34.810551,102.747025 30.933399,98.639816 
	C31.124289,97.882690 31.279081,97.461418 31.762970,96.936600 
	C32.571182,93.348686 32.480721,93.117462 28.901369,93.040329 
	C23.731142,92.928917 18.556726,93.011818 12.933377,93.011818 
	C14.277747,90.359604 15.138521,88.661438 16.016705,86.713448 
	C16.002144,86.299744 15.970175,86.135880 15.938205,85.972008 
	C15.938205,85.972008 16.381535,85.938515 16.983749,85.962128 
	C19.028601,84.605026 20.471237,83.224312 22.066822,81.629440 
	C22.679201,81.172737 23.138630,80.930183 23.957861,80.753639 
	C26.268377,78.935196 28.219091,77.050743 30.524799,75.119232 
	C34.937798,72.348717 38.995796,69.625267 43.053799,66.901817 
	C43.563702,67.254181 44.073601,67.606544 44.583504,67.958908 
	C43.558491,70.309242 42.329010,72.594978 41.560947,75.026482 
	C40.630005,77.973640 36.267391,80.349129 39.955795,84.501266 
	C41.906673,85.450607 43.725250,86.446632 45.596409,86.557846 
	C49.900196,86.813652 54.229568,86.638931 58.665035,86.638931 
	C58.453156,87.902580 58.264519,89.027603 57.950378,90.344131 
	C57.610722,90.763924 57.354141,90.924385 56.664303,91.006241 
	C49.731457,91.999001 47.082584,97.275436 43.935059,102.331070 
	C43.610191,102.770905 43.351410,102.930992 42.672157,102.997437 
	C40.886246,104.364868 39.471050,105.745544 37.901073,107.359543 
	C37.161877,108.051117 36.577461,108.509377 35.622711,108.968445 
	C32.217525,110.032890 29.298981,111.214279 28.970161,115.366661 
	C28.789419,115.995743 28.686090,116.354721 28.582764,116.713692 
z"/>
<path fill="#384160" opacity="1.000000" stroke="none" 
	d="
M237.362350,276.967712 
	C248.915344,278.989258 254.278091,271.270294 259.374115,263.045441 
	C264.634064,254.556000 269.890625,246.061508 275.349609,237.700409 
	C276.738129,235.573730 278.888733,233.944641 281.042297,232.443726 
	C281.482117,233.254074 281.568848,233.707626 281.655579,234.161179 
	C281.447845,235.184219 281.240112,236.207260 280.832153,237.838531 
	C280.690369,239.014679 280.748871,239.582581 280.807343,240.150482 
	C280.711792,240.301498 280.616272,240.452499 280.003021,240.829803 
	C278.670166,242.030167 277.855011,243.004257 277.039825,243.978333 
	C269.353882,249.387970 266.104828,258.113647 261.044617,265.477051 
	C259.021271,268.421356 257.623993,271.812195 255.480026,274.651031 
	C254.282181,276.237152 252.271027,277.793549 250.391937,278.159454 
	C246.447144,278.927521 242.347534,278.900543 237.980560,279.160156 
	C237.527405,278.930389 237.405167,278.740387 237.212097,278.024902 
	C237.214951,277.322174 237.288651,277.144928 237.362350,276.967712 
z"/>
<path fill="#4B3D6C" opacity="1.000000" stroke="none" 
	d="
M81.707764,299.611084 
	C82.449028,299.420563 83.701302,299.327972 83.935593,299.772217 
	C86.624008,304.870270 91.119926,307.771149 95.554413,311.228210 
	C100.117363,314.785431 104.911911,316.398682 109.959961,316.829315 
	C120.666893,317.742676 131.456238,317.727356 142.214340,317.987518 
	C147.528046,318.115997 152.849106,317.936310 158.163162,318.057312 
	C159.709137,318.092499 161.242432,318.684509 162.895126,319.398010 
	C146.091660,319.707336 129.142899,320.252045 112.267639,319.377838 
	C98.911125,318.685883 88.390068,311.982056 81.707764,299.611084 
z"/>
<path fill="#F1F6F4" opacity="1.000000" stroke="none" 
	d="
M258.151306,202.085510 
	C252.707260,210.788361 247.263229,219.491180 241.507584,228.362213 
	C240.801208,220.931992 246.779831,216.203354 249.577087,210.042908 
	C250.686356,207.599915 252.311218,205.391052 253.326309,202.769806 
	C255.281311,199.957993 257.345825,197.215073 259.167572,194.319427 
	C262.522095,188.987457 265.639984,183.504303 269.084686,178.233292 
	C269.773010,177.180038 271.481567,176.793518 273.154266,176.159241 
	C273.249573,177.122787 272.910248,178.026611 272.239868,179.388199 
	C271.696838,180.089478 271.633911,180.366821 271.720062,180.677979 
	C271.720062,180.677979 271.726288,180.742783 271.404785,180.847778 
	C270.775543,181.663773 270.467804,182.374771 270.160065,183.085770 
	C266.764221,188.411575 263.368378,193.737381 259.543884,199.490692 
	C258.793915,200.640656 258.472595,201.363083 258.151306,202.085510 
z"/>
<path fill="#F1F6F4" opacity="1.000000" stroke="none" 
	d="
M237.092987,276.747192 
	C237.288651,277.144928 237.214951,277.322174 237.007843,277.754517 
	C233.094681,278.452118 230.379578,277.329254 229.539810,273.209839 
	C229.382553,272.438385 228.956696,271.428314 228.343903,271.087708 
	C220.776901,266.881958 224.017761,260.209229 224.867661,254.468430 
	C226.079269,246.284424 230.042297,239.246155 236.006958,233.407333 
	C237.452042,231.992706 238.784058,230.462555 240.556488,228.990112 
	C237.536728,234.867737 233.825897,240.591293 230.825912,246.665924 
	C228.797729,250.772766 227.129120,255.279724 226.468475,259.779327 
	C225.749176,264.678375 228.638885,268.657532 232.239090,271.951630 
	C233.830414,273.407654 235.299225,274.997559 237.092987,276.747192 
z"/>
<path fill="#4B3D6C" opacity="1.000000" stroke="none" 
	d="
M192.446106,319.911438 
	C193.508377,319.190643 195.017426,318.109558 196.540390,318.089600 
	C207.662231,317.943756 218.797974,318.312683 229.906769,317.904663 
	C237.284500,317.633728 244.623032,316.329895 251.984589,315.539429 
	C252.891663,315.442047 253.832581,315.659882 254.971832,316.055634 
	C250.674988,317.648651 246.188400,319.897919 241.648895,320.010376 
	C225.408737,320.412628 209.150635,320.090515 192.446106,319.911438 
z"/>
<path fill="#DFA05D" opacity="1.000000" stroke="none" 
	d="
M39.847374,84.146088 
	C36.267391,80.349129 40.630005,77.973640 41.560947,75.026482 
	C42.329010,72.594978 43.558491,70.309242 44.583504,67.958908 
	C44.073601,67.606544 43.563702,67.254181 43.053799,66.901817 
	C38.995796,69.625267 34.937798,72.348717 30.449451,75.040009 
	C30.019106,75.007843 29.874250,74.844032 30.040188,74.580261 
	C31.153589,73.220467 32.101051,72.124443 33.048515,71.028419 
	C33.352325,70.915344 33.604103,70.731148 34.254791,70.227348 
	C36.467442,68.316643 38.229153,66.654404 39.990868,64.992172 
	C39.990868,64.992172 40.000000,65.000000 40.322731,64.903801 
	C44.412975,62.559616 48.180492,60.311630 51.948009,58.063644 
	C51.970379,58.496391 51.992748,58.929138 51.740295,59.865852 
	C49.983124,63.585945 48.500782,66.802071 47.018440,70.018196 
	C46.892117,70.350418 46.765793,70.682632 46.303116,71.445778 
	C44.952301,73.902847 43.937843,75.928993 42.923386,77.955147 
	C42.923389,77.955147 42.766171,78.290611 42.437538,78.622604 
	C41.457478,80.586380 40.806053,82.218155 40.077995,83.924164 
	C40.001369,83.998398 39.847374,84.146088 39.847374,84.146088 
z"/>
<path fill="#F1F6F4" opacity="1.000000" stroke="none" 
	d="
M283.070679,109.043137 
	C283.070679,109.043129 282.819000,109.320709 282.446106,109.605438 
	C281.734161,110.604485 281.395142,111.318794 281.056122,112.033104 
	C280.283875,113.346367 279.511597,114.659630 278.374512,116.441071 
	C277.793030,117.661224 277.576385,118.413185 277.359711,119.165138 
	C276.610962,121.526810 275.862244,123.888489 274.851379,126.624603 
	C274.589294,126.999039 274.126373,127.042442 274.126373,127.042442 
	C274.309875,123.271881 273.474945,119.059128 274.881500,115.819557 
	C278.166168,108.254166 284.338928,102.809235 291.021606,98.099678 
	C291.692596,97.626808 293.014526,98.077576 294.177490,98.445007 
	C292.012146,100.674057 289.703674,102.557793 286.855347,104.713371 
	C285.843353,105.622498 285.371185,106.259781 284.899017,106.897064 
	C284.899017,106.897064 285.000000,106.999695 284.635559,106.998734 
	C283.870941,107.679558 283.470825,108.361351 283.070679,109.043137 
z"/>
<path fill="#FCE6C7" opacity="1.000000" stroke="none" 
	d="
M57.055134,91.016998 
	C57.354141,90.924385 57.610722,90.763924 58.302429,90.267632 
	C59.792217,88.496147 60.804447,86.992661 61.816677,85.489174 
	C60.152832,85.019913 58.510479,84.268234 56.820709,84.139633 
	C53.201561,83.864197 49.557903,83.910721 45.924286,83.825394 
	C48.951843,81.298973 60.831783,81.015205 62.816696,83.816193 
	C63.699425,85.061852 63.902393,88.275330 63.044041,89.023026 
	C58.154274,93.282387 52.851166,97.067230 47.453987,100.684525 
	C50.497982,97.242775 53.776558,94.129890 57.055134,91.016998 
z"/>
<path fill="#DFA05D" opacity="1.000000" stroke="none" 
	d="
M15.999296,86.963280 
	C15.138521,88.661438 14.277747,90.359604 12.933377,93.011818 
	C18.556726,93.011818 23.731142,92.928917 28.901369,93.040329 
	C32.480721,93.117462 32.571182,93.348686 31.610703,96.584656 
	C30.067801,95.925446 29.006264,95.514618 27.944727,95.103790 
	C25.941050,95.095215 23.937370,95.086647 21.152496,95.023529 
	C19.890287,95.029327 19.409273,95.089661 18.928257,95.149994 
	C18.514101,95.123238 18.099947,95.096489 17.024906,95.008522 
	C15.887748,95.009369 15.411472,95.071426 14.935198,95.133492 
	C13.353409,95.020706 11.771621,94.907921 9.720488,94.397690 
	C9.151823,93.323158 9.052502,92.646072 8.953180,91.968979 
	C10.200254,90.845100 11.447329,89.721230 13.181304,88.297066 
	C14.445235,87.652275 15.222266,87.307777 15.999296,86.963280 
z"/>
<path fill="#DFA05D" opacity="1.000000" stroke="none" 
	d="
M45.574173,83.871643 
	C49.557903,83.910721 53.201561,83.864197 56.820709,84.139633 
	C58.510479,84.268234 60.152832,85.019913 61.816677,85.489174 
	C60.804447,86.992661 59.792217,88.496147 58.427937,90.076126 
	C58.264519,89.027603 58.453156,87.902580 58.665035,86.638931 
	C54.229568,86.638931 49.900196,86.813652 45.596409,86.557846 
	C43.725250,86.446632 41.906673,85.450607 39.955795,84.501266 
	C39.847374,84.146088 40.001369,83.998398 40.447861,83.963699 
	C41.635139,83.871109 42.375927,83.813217 43.116711,83.755333 
	C43.819160,83.809517 44.521606,83.863701 45.574173,83.871643 
z"/>
<path fill="#4B3D6C" opacity="1.000000" stroke="none" 
	d="
M266.368652,117.067245 
	C265.933502,116.074989 265.169556,114.731979 265.556763,114.132469 
	C269.295929,108.343140 273.228607,102.678787 277.462402,96.951355 
	C277.822296,97.311714 277.825806,97.699448 277.557373,98.543945 
	C276.794586,99.973526 276.303741,100.946358 275.812866,101.919189 
	C274.821564,103.206841 273.830261,104.494492 272.501648,106.235153 
	C271.770508,107.454247 271.376617,108.220306 270.982727,108.986366 
	C270.630524,109.392845 270.278351,109.799324 269.632202,110.655350 
	C269.142426,111.706947 268.946655,112.308990 268.750885,112.911041 
	C268.149323,114.046944 267.547760,115.182838 266.973083,116.659195 
	C267.000000,116.999649 266.976410,116.979530 266.976410,116.979530 
	C266.976410,116.979530 266.573944,117.061470 266.368652,117.067245 
z"/>
<path fill="#F1F6F4" opacity="1.000000" stroke="none" 
	d="
M276.168182,151.980133 
	C276.250854,152.388657 276.333557,152.797165 276.383911,153.771362 
	C276.599335,154.887421 276.847046,155.437820 277.094788,155.988220 
	C277.173431,156.698792 277.252045,157.409378 277.283813,158.899933 
	C276.208710,164.463425 275.180481,169.246933 274.152222,174.030441 
	C273.792847,173.176544 272.899048,172.087936 273.155304,171.504379 
	C276.359192,164.208252 275.249634,156.975311 273.175323,149.703506 
	C273.068085,149.327515 273.473938,148.805161 274.167480,148.405182 
	C275.185455,149.632965 275.676819,150.806549 276.168182,151.980133 
z"/>
<path fill="#4B3D6C" opacity="1.000000" stroke="none" 
	d="
M278.487244,94.993408 
	C278.325195,93.197037 277.936218,91.387115 278.042419,89.606750 
	C278.401428,83.590523 278.936035,77.584770 279.919739,71.306229 
	C280.435883,71.037445 280.866791,71.061005 280.866760,71.061005 
	C280.826385,75.727570 280.786011,80.394135 280.625549,85.767113 
	C280.503815,87.323730 280.502167,88.173943 280.500519,89.024147 
	C280.255371,90.076996 280.010254,91.129852 279.643829,92.745033 
	C279.522522,93.307358 279.617554,93.721161 279.617554,93.721161 
	C279.617554,93.721161 279.623688,93.859161 279.413818,93.967285 
	C278.965057,94.381409 278.726166,94.687408 278.487244,94.993408 
z"/>
<path fill="#F1F6F4" opacity="1.000000" stroke="none" 
	d="
M309.978271,190.117798 
	C314.299927,187.641388 318.664886,185.508728 323.422974,183.389755 
	C322.909088,186.679443 313.202850,191.645752 309.978271,190.117798 
z"/>
<path fill="#F1F6F4" opacity="1.000000" stroke="none" 
	d="
M287.820618,220.758850 
	C289.459290,218.029388 291.097931,215.299911 293.242126,212.319611 
	C294.107422,212.025436 294.467133,211.982117 294.826874,211.938782 
	C295.373657,212.223328 295.920471,212.507889 296.467255,212.792450 
	C293.746674,216.318283 291.026093,219.844116 288.128632,222.763428 
	C287.908051,221.690903 287.864319,221.224884 287.820618,220.758850 
z"/>
<path fill="#DFA05D" opacity="1.000000" stroke="none" 
	d="
M56.664303,91.006241 
	C53.776558,94.129890 50.497982,97.242775 47.085121,100.666016 
	C46.643452,101.070869 46.383797,101.239059 45.735008,101.707169 
	C44.882408,101.999512 44.466660,102.065620 44.050907,102.131729 
	C47.082584,97.275436 49.731457,91.999001 56.664303,91.006241 
z"/>
<path fill="#FCE6C7" opacity="1.000000" stroke="none" 
	d="
M27.963400,95.505287 
	C29.006264,95.514618 30.067801,95.925446 31.281605,96.688202 
	C31.279081,97.461418 31.124289,97.882690 30.664104,98.837082 
	C29.537861,101.233154 28.717007,103.096107 27.896156,104.959061 
	C27.802464,105.294029 27.708769,105.628990 27.319981,106.330444 
	C26.467470,106.920372 25.910053,107.143829 25.352638,107.367279 
	C26.229116,103.547112 27.105595,99.726952 27.963400,95.505287 
z"/>
<path fill="#DFA05D" opacity="1.000000" stroke="none" 
	d="
M24.052862,112.140617 
	C24.935152,113.603447 25.817442,115.066277 26.875153,116.827301 
	C26.452555,117.887291 25.854536,118.649086 24.743153,119.717743 
	C22.822624,120.355003 21.415459,120.685410 20.008293,121.015816 
	C19.977613,120.562378 19.946936,120.108940 20.179546,119.128204 
	C20.637821,117.736275 20.832809,116.871635 21.027796,116.006996 
	C21.663364,114.891632 22.298933,113.776268 23.234964,112.367401 
	C23.707905,112.096146 23.880383,112.118385 24.052862,112.140617 
z"/>
<path fill="#74A886" opacity="1.000000" stroke="none" 
	d="
M274.113953,174.374969 
	C275.180481,169.246933 276.208710,164.463425 277.393066,159.240906 
	C277.647766,162.329285 278.133301,165.904282 277.707336,169.367172 
	C277.428070,171.637756 275.830841,173.746231 274.480957,176.003693 
	C274.117188,175.626556 274.096405,175.173019 274.113953,174.374969 
z"/>
<path fill="#4B3D6C" opacity="1.000000" stroke="none" 
	d="
M269.084045,307.331421 
	C271.030762,303.692657 273.249146,299.898102 275.810730,296.448547 
	C275.862335,297.893219 275.570770,298.992859 275.279175,300.092499 
	C273.304688,302.453522 271.330231,304.814545 269.084045,307.331421 
z"/>
<path fill="#FCE6C7" opacity="1.000000" stroke="none" 
	d="
M51.920841,57.693062 
	C48.180492,60.311630 44.412975,62.559616 40.318932,64.899231 
	C41.305046,59.421791 47.892754,55.177116 51.920841,57.693062 
z"/>
<path fill="#4B3D6C" opacity="1.000000" stroke="none" 
	d="
M263.029663,175.736237 
	C261.008728,171.331741 263.504486,168.240311 266.231964,165.050079 
	C265.732574,168.078339 264.905670,171.177826 263.840271,174.794128 
	C263.578400,175.478912 263.555023,175.646851 263.531616,175.814789 
	C263.531616,175.814789 263.189819,175.796585 263.029663,175.736237 
z"/>
<path fill="#4B3D6C" opacity="1.000000" stroke="none" 
	d="
M168.440308,319.904785 
	C172.417206,316.344604 177.112579,317.897034 181.896820,319.405487 
	C177.635544,319.865875 173.262756,319.950592 168.440308,319.904785 
z"/>
<path fill="#FCE6C7" opacity="1.000000" stroke="none" 
	d="
M47.378223,69.983025 
	C48.500782,66.802071 49.983124,63.585945 51.759987,60.190250 
	C54.659134,65.079460 49.702778,66.863914 47.378223,69.983025 
z"/>
<path fill="#4B3D6C" opacity="1.000000" stroke="none" 
	d="
M262.338501,312.882874 
	C263.932220,311.072510 265.870575,309.232086 268.145813,307.594147 
	C266.549469,309.482025 264.616333,311.167389 262.338501,312.882874 
z"/>
<path fill="#DFA05D" opacity="1.000000" stroke="none" 
	d="
M30.094456,75.087067 
	C28.219091,77.050743 26.268377,78.935196 24.076286,80.456451 
	C24.344067,79.157448 24.853226,78.221634 25.362385,77.285820 
	C26.153898,76.720268 26.945414,76.154724 28.199318,75.324829 
	C29.065886,74.988335 29.470068,74.916183 29.874250,74.844032 
	C29.874250,74.844032 30.019106,75.007843 30.094456,75.087067 
z"/>
<path fill="#DFA05D" opacity="1.000000" stroke="none" 
	d="
M29.047577,115.096550 
	C29.298981,111.214279 32.217525,110.032890 35.524086,109.261917 
	C35.224205,110.389915 34.652615,111.225250 34.081028,112.060593 
	C33.458412,112.494766 32.835793,112.928947 31.739616,113.655975 
	C30.526567,114.331406 29.787073,114.713982 29.047577,115.096550 
z"/>
<path fill="#FCE6C7" opacity="1.000000" stroke="none" 
	d="
M34.435902,112.056938 
	C34.652615,111.225250 35.224205,110.389915 35.894421,109.261101 
	C36.577461,108.509377 37.161877,108.051117 38.202690,107.327538 
	C39.053490,106.975578 39.447895,106.888939 39.928764,106.906342 
	C40.015224,107.010384 40.188248,107.218376 40.188248,107.218376 
	C38.389088,108.830009 36.589931,110.441650 34.435902,112.056938 
z"/>
<path fill="#FCE6C7" opacity="1.000000" stroke="none" 
	d="
M24.993000,77.218758 
	C24.853226,78.221634 24.344067,79.157448 23.716484,80.390442 
	C23.138630,80.930183 22.679201,81.172737 21.753492,81.668488 
	C20.869936,81.971382 20.452660,82.021057 20.035381,82.070740 
	C21.564793,80.431053 23.094204,78.791374 24.993000,77.218758 
z"/>
<path fill="#74A886" opacity="1.000000" stroke="none" 
	d="
M274.121124,135.005524 
	C274.310547,137.146500 274.499969,139.287491 274.213348,141.696991 
	C273.737335,141.965500 273.273193,141.860962 273.273193,141.860962 
	C273.287598,139.892654 273.302002,137.924347 273.494598,135.490326 
	C273.672791,135.024597 274.121124,135.005524 274.121124,135.005524 
z"/>
<path fill="#F1F6F4" opacity="1.000000" stroke="none" 
	d="
M235.516449,280.077576 
	C232.882568,282.757324 229.935165,281.252228 226.780457,279.459381 
	C229.390137,279.446289 232.206879,279.727417 235.516449,280.077576 
z"/>
<path fill="#FCE6C7" opacity="1.000000" stroke="none" 
	d="
M43.935059,102.331070 
	C44.466660,102.065620 44.882408,101.999512 45.612865,101.907440 
	C44.243263,103.612961 42.558952,105.344437 40.531445,107.147148 
	C40.188248,107.218376 40.015224,107.010384 40.105423,106.651321 
	C41.144707,105.198402 42.093788,104.104538 43.042870,103.010674 
	C43.351410,102.930992 43.610191,102.770905 43.935059,102.331070 
z"/>
<path fill="#F1F6F4" opacity="1.000000" stroke="none" 
	d="
M274.102173,134.576294 
	C274.121124,135.005524 273.672791,135.024597 273.453552,135.069763 
	C270.815887,133.067825 270.343079,131.049194 273.661743,129.041656 
	C274.028351,130.717209 274.055786,132.432144 274.102173,134.576294 
z"/>
<path fill="#4B3D6C" opacity="1.000000" stroke="none" 
	d="
M263.009399,134.002136 
	C263.012787,131.720215 263.016205,129.438293 263.363770,127.028687 
	C263.694397,128.956833 263.680817,131.012680 263.548828,133.505005 
	C263.430420,133.941483 263.009399,134.002136 263.009399,134.002136 
z"/>
<path fill="#FCE6C7" opacity="1.000000" stroke="none" 
	d="
M39.626083,64.982079 
	C38.229153,66.654404 36.467442,68.316643 34.370407,70.021225 
	C35.777161,68.366371 37.519230,66.669182 39.626083,64.982079 
z"/>
<path fill="#4B3D6C" opacity="1.000000" stroke="none" 
	d="
M263.998657,124.998383 
	C264.301270,123.056099 264.603851,121.113815 265.218323,119.078239 
	C265.267365,120.714195 265.004547,122.443443 264.580597,124.559029 
	C264.419434,124.945366 263.998657,124.998383 263.998657,124.998383 
z"/>
<path fill="#74A886" opacity="1.000000" stroke="none" 
	d="
M276.405914,151.744171 
	C275.676819,150.806549 275.185455,149.632965 274.486694,148.206085 
	C274.290894,147.144455 274.302490,146.336136 274.458923,145.150116 
	C275.283722,147.017670 275.963684,149.262939 276.405914,151.744171 
z"/>
<path fill="#4B3D6C" opacity="1.000000" stroke="none" 
	d="
M265.573914,151.705505 
	C264.818420,149.790085 264.172363,147.561829 263.980774,145.188446 
	C264.435211,145.043320 264.861969,145.060120 264.862000,145.060120 
	C264.898102,145.808807 264.934235,146.557510 265.045593,147.923401 
	C265.341156,149.052109 265.561462,149.563629 265.781799,150.075134 
	C265.748962,150.514313 265.716156,150.953491 265.573914,151.705505 
z"/>
<path fill="#F1F6F4" opacity="1.000000" stroke="none" 
	d="
M227.438904,234.983353 
	C228.157196,233.061523 229.235611,231.095718 230.613922,228.971527 
	C229.875580,230.855209 228.837311,232.897293 227.438904,234.983353 
z"/>
<path fill="#F1F6F4" opacity="1.000000" stroke="none" 
	d="
M232.377106,227.000000 
	C232.431198,226.076904 232.868790,225.163361 233.578781,224.100067 
	C234.785080,224.518646 235.718964,225.086945 237.892715,226.409744 
	C235.329056,226.709381 234.044830,226.859467 232.377106,227.000000 
z"/>
<path fill="#FCE6C7" opacity="1.000000" stroke="none" 
	d="
M43.089172,83.336975 
	C42.375927,83.813217 41.635139,83.871109 40.524490,83.889465 
	C40.806053,82.218155 41.457478,80.586380 42.407928,78.805473 
	C42.825180,80.077103 42.943409,81.497864 43.089172,83.336975 
z"/>
<path fill="#FCE6C7" opacity="1.000000" stroke="none" 
	d="
M43.279572,77.927551 
	C43.937843,75.928993 44.952301,73.902847 46.251053,71.707550 
	C45.568813,73.658928 44.602287,75.779442 43.279572,77.927551 
z"/>
<path fill="#F1F6F4" opacity="1.000000" stroke="none" 
	d="
M302.277679,199.125031 
	C302.464142,198.095840 302.957001,197.206528 303.725098,196.157242 
	C304.589783,196.747543 305.179291,197.497818 305.768799,198.248093 
	C304.707245,198.587036 303.645660,198.925980 302.277679,199.125031 
z"/>
<path fill="#FCE6C7" opacity="1.000000" stroke="none" 
	d="
M20.052055,121.367950 
	C21.415459,120.685410 22.822624,120.355003 24.591864,119.972107 
	C24.288469,123.093658 22.824896,124.114197 20.052055,121.367950 
z"/>
<path fill="#F1F6F4" opacity="1.000000" stroke="none" 
	d="
M216.665527,256.932068 
	C216.725296,255.160278 217.106171,253.304230 217.769379,251.233948 
	C217.696686,252.962433 217.341660,254.905136 216.665527,256.932068 
z"/>
<path fill="#F1F6F4" opacity="1.000000" stroke="none" 
	d="
M297.486572,206.231308 
	C297.836517,204.965286 298.472351,203.834137 299.408325,202.559814 
	C300.635620,204.503922 302.203705,206.905380 297.486572,206.231308 
z"/>
<path fill="#F1F6F4" opacity="1.000000" stroke="none" 
	d="
M218.319122,268.755737 
	C217.418213,267.214355 216.757736,265.458832 216.186005,263.346069 
	C217.036346,264.839752 217.797958,266.690674 218.319122,268.755737 
z"/>
<path fill="#FCE6C7" opacity="1.000000" stroke="none" 
	d="
M30.040188,74.580261 
	C29.470068,74.916183 29.065886,74.988335 28.353672,75.071838 
	C29.466539,73.718430 30.887434,72.353676 32.678421,71.008667 
	C32.101051,72.124443 31.153589,73.220467 30.040188,74.580261 
z"/>
<path fill="#C2CED0" opacity="1.000000" stroke="none" 
	d="
M279.770630,287.887817 
	C279.289093,286.557892 279.130890,285.144318 279.182892,283.317078 
	C279.393097,282.903442 279.785645,282.958954 279.785645,282.958954 
	C279.888397,284.574005 279.991180,286.189087 279.770630,287.887817 
z"/>
<path fill="#DFA05D" opacity="1.000000" stroke="none" 
	d="
M19.859446,82.329544 
	C20.452660,82.021057 20.869936,81.971382 21.600542,81.882645 
	C20.471237,83.224312 19.028601,84.605026 17.205429,85.945587 
	C17.777765,84.799728 18.730637,83.694038 19.859446,82.329544 
z"/>
<path fill="#F1F6F4" opacity="1.000000" stroke="none" 
	d="
M281.156128,70.847427 
	C280.866791,71.061005 280.435883,71.037445 280.220978,71.018219 
	C280.045197,69.601639 280.084290,68.204300 280.224213,66.397964 
	C280.698486,67.537270 281.071960,69.085556 281.156128,70.847427 
z"/>
<path fill="#4B3D6C" opacity="1.000000" stroke="none" 
	d="
M277.380890,294.134735 
	C276.149323,292.256500 275.070282,290.223816 278.573730,289.038513 
	C278.948730,289.440674 278.973816,289.884949 278.697021,290.814575 
	C278.366211,291.901123 278.337280,292.502380 278.308380,293.103607 
	C278.081726,293.402496 277.855072,293.701385 277.380890,294.134735 
z"/>
<path fill="#4B3D6C" opacity="1.000000" stroke="none" 
	d="
M277.322845,244.108643 
	C277.855011,243.004257 278.670166,242.030167 279.817322,241.023102 
	C280.193237,242.077759 280.237152,243.165390 280.110291,244.628174 
	C279.161621,244.748520 278.383759,244.493729 277.322845,244.108643 
z"/>
<path fill="#F1F6F4" opacity="1.000000" stroke="none" 
	d="
M242.294937,210.934769 
	C242.653717,209.550964 243.405060,208.140396 244.456757,206.550995 
	C244.067245,207.884109 243.377365,209.396057 242.294937,210.934769 
z"/>
<path fill="#FCE6C7" opacity="1.000000" stroke="none" 
	d="
M24.134817,111.854256 
	C23.880383,112.118385 23.707905,112.096146 23.275990,112.047066 
	C23.484772,110.706871 23.952990,109.393509 24.766573,108.395203 
	C25.124926,109.157631 25.137915,109.604988 25.150904,110.052353 
	C24.839527,110.557533 24.528149,111.062714 24.134817,111.854256 
z"/>
<path fill="#DFA05D" opacity="1.000000" stroke="none" 
	d="
M25.500744,109.993027 
	C25.137915,109.604988 25.124926,109.157631 25.097250,108.374191 
	C25.082563,108.038124 25.224512,107.704430 25.288574,107.535858 
	C25.910053,107.143829 26.467470,106.920372 27.303036,106.591354 
	C27.004320,107.635086 26.427452,108.784393 25.500744,109.993027 
z"/>
<path fill="#4B3D6C" opacity="1.000000" stroke="none" 
	d="
M279.889893,282.568878 
	C279.785645,282.958954 279.393097,282.903442 279.201416,282.953979 
	C279.070099,281.710297 279.130432,280.416077 279.520691,279.057495 
	C279.898438,280.054993 279.946289,281.116882 279.889893,282.568878 
z"/>
<path fill="#C2CED0" opacity="1.000000" stroke="none" 
	d="
M275.579590,300.028259 
	C275.570770,298.992859 275.862335,297.893219 276.173157,296.438599 
	C276.192383,296.083618 276.662109,295.977600 276.900818,296.009186 
	C276.719696,297.348541 276.299835,298.656281 275.579590,300.028259 
z"/>
<path fill="#4B3D6C" opacity="1.000000" stroke="none" 
	d="
M263.575928,140.634155 
	C263.144592,139.807663 262.821686,138.595093 262.971008,137.214493 
	C263.443176,137.046478 263.870148,137.058289 263.870178,137.058289 
	C263.808228,138.121536 263.746277,139.184799 263.575928,140.634155 
z"/>
<path fill="#FCE6C7" opacity="1.000000" stroke="none" 
	d="
M28.970161,115.366661 
	C29.787073,114.713982 30.526567,114.331406 31.572182,113.889008 
	C31.031466,114.838242 30.184629,115.847298 28.960278,116.785019 
	C28.686090,116.354721 28.789419,115.995743 28.970161,115.366661 
z"/>
<path fill="#F1F6F4" opacity="1.000000" stroke="none" 
	d="
M256.418762,187.977692 
	C256.532715,187.083481 256.965515,186.162460 257.686584,185.116730 
	C257.562408,185.978302 257.150024,186.964600 256.418762,187.977692 
z"/>
<path fill="#4B3D6C" opacity="1.000000" stroke="none" 
	d="
M279.731140,64.653824 
	C279.253632,64.130836 278.866669,63.249390 278.933167,62.220924 
	C279.386658,62.073902 279.807831,62.084724 279.807831,62.084724 
	C279.812469,62.821606 279.817078,63.558491 279.731140,64.653824 
z"/>
<path fill="#FCE6C7" opacity="1.000000" stroke="none" 
	d="
M20.704887,116.035210 
	C20.832809,116.871635 20.637821,117.736275 20.160986,118.787430 
	C20.046751,118.003769 20.214363,117.033600 20.704887,116.035210 
z"/>
<path fill="#FCE6C7" opacity="1.000000" stroke="none" 
	d="
M8.610329,92.020355 
	C9.052502,92.646072 9.151823,93.323158 9.331278,94.329376 
	C8.712072,94.437660 8.012733,94.216820 7.313395,93.995979 
	C7.631422,93.354568 7.949448,92.713150 8.610329,92.020355 
z"/>
<path fill="#F1F6F4" opacity="1.000000" stroke="none" 
	d="
M272.977051,142.051865 
	C273.273193,141.860962 273.737335,141.965500 273.974915,141.978638 
	C274.235779,142.734299 274.259094,143.476852 274.191711,144.579803 
	C273.627655,144.041061 273.154266,143.141922 272.977051,142.051865 
z"/>
<path fill="#F1F6F4" opacity="1.000000" stroke="none" 
	d="
M280.790527,88.941368 
	C280.502167,88.173943 280.503815,87.323730 280.713074,86.224899 
	C280.973938,86.937042 281.027222,87.897820 280.790527,88.941368 
z"/>
<path fill="#F1F6F4" opacity="1.000000" stroke="none" 
	d="
M264.148010,136.875977 
	C263.870148,137.058289 263.443176,137.046478 263.231171,137.020813 
	C263.087006,136.241776 263.154846,135.488434 263.116058,134.368607 
	C263.009399,134.002136 263.430420,133.941483 263.643005,133.937653 
	C264.045685,134.853760 264.235748,135.773712 264.148010,136.875977 
z"/>
<path fill="#F1F6F4" opacity="1.000000" stroke="none" 
	d="
M274.893005,49.788071 
	C274.187988,49.357113 273.535828,48.544285 272.816620,47.416649 
	C273.481659,47.869961 274.213776,48.638077 274.893005,49.788071 
z"/>
<path fill="#F1F6F4" opacity="1.000000" stroke="none" 
	d="
M223.913467,240.772034 
	C224.055038,239.801865 224.588913,238.759094 225.426117,237.526749 
	C225.254883,238.457916 224.780319,239.578674 223.913467,240.772034 
z"/>
<path fill="#FCE6C7" opacity="1.000000" stroke="none" 
	d="
M16.016705,86.713448 
	C15.222266,87.307777 14.445235,87.652275 13.351149,88.031456 
	C13.766489,87.359055 14.498886,86.651962 15.584743,85.958443 
	C15.970175,86.135880 16.002144,86.299744 16.016705,86.713448 
z"/>
<path fill="#F1F6F4" opacity="1.000000" stroke="none" 
	d="
M276.195923,101.895477 
	C276.303741,100.946358 276.794586,99.973526 277.576050,98.837959 
	C277.437408,99.740738 277.008209,100.806259 276.195923,101.895477 
z"/>
<path fill="#F1F6F4" opacity="1.000000" stroke="none" 
	d="
M220.837463,273.171997 
	C220.239349,272.900360 219.681427,272.263550 219.097031,271.302246 
	C219.672913,271.587433 220.275284,272.197174 220.837463,273.171997 
z"/>
<path fill="#FCE6C7" opacity="1.000000" stroke="none" 
	d="
M14.986267,95.413742 
	C15.411472,95.071426 15.887748,95.009369 16.714993,95.043022 
	C16.389755,95.323814 15.713546,95.508904 14.986267,95.413742 
z"/>
<path fill="#F1F6F4" opacity="1.000000" stroke="none" 
	d="
M271.351288,108.929161 
	C271.376617,108.220306 271.770508,107.454247 272.465973,106.541870 
	C272.418304,107.221024 272.069092,108.046486 271.351288,108.929161 
z"/>
<path fill="#F1F6F4" opacity="1.000000" stroke="none" 
	d="
M278.512573,95.262123 
	C278.726166,94.687408 278.965057,94.381409 279.440521,93.903595 
	C279.464508,94.780800 279.251953,95.829826 278.715637,96.999680 
	C278.440521,96.590614 278.489197,96.060730 278.512573,95.262123 
z"/>
<path fill="#F1F6F4" opacity="1.000000" stroke="none" 
	d="
M219.721222,247.787323 
	C219.741058,246.983719 220.066635,246.158798 220.684418,245.164703 
	C220.660049,245.919022 220.343506,246.842499 219.721222,247.787323 
z"/>
<path fill="#C2CED0" opacity="1.000000" stroke="none" 
	d="
M278.580322,293.054962 
	C278.337280,292.502380 278.366211,291.901123 278.666748,291.148010 
	C278.909637,291.666168 278.880951,292.336243 278.580322,293.054962 
z"/>
<path fill="#C2CED0" opacity="1.000000" stroke="none" 
	d="
M281.030396,240.054306 
	C280.748871,239.582581 280.690369,239.014679 280.848969,238.232849 
	C281.128510,238.665329 281.190979,239.311722 281.030396,240.054306 
z"/>
<path fill="#C2CED0" opacity="1.000000" stroke="none" 
	d="
M281.893341,234.085709 
	C281.568848,233.707626 281.482117,233.254074 281.408081,232.442078 
	C281.420807,232.083618 281.801636,232.001160 281.996521,231.998779 
	C282.171326,232.667694 282.151245,233.338959 281.893341,234.085709 
z"/>
<path fill="#F1F6F4" opacity="1.000000" stroke="none" 
	d="
M265.101624,144.928818 
	C264.861969,145.060120 264.435211,145.043320 264.222961,145.019897 
	C264.076569,144.540710 264.142426,144.084961 264.324677,143.303207 
	C264.741180,143.583984 265.041260,144.190750 265.101624,144.928818 
z"/>
<path fill="#C2CED0" opacity="1.000000" stroke="none" 
	d="
M287.523865,220.858994 
	C287.864319,221.224884 287.908051,221.690903 287.950195,222.506958 
	C287.596619,222.951233 287.244629,223.045502 286.619507,223.132812 
	C286.639954,222.403610 286.933502,221.681366 287.523865,220.858994 
z"/>
<path fill="#F1F6F4" opacity="1.000000" stroke="none" 
	d="
M266.035034,149.944489 
	C265.561462,149.563629 265.341156,149.052109 265.213745,148.263184 
	C265.633911,148.595123 265.961090,149.204483 266.035034,149.944489 
z"/>
<path fill="#F1F6F4" opacity="1.000000" stroke="none" 
	d="
M238.466766,216.954544 
	C238.470734,216.264572 238.831909,215.493851 239.475250,214.550629 
	C239.446274,215.210037 239.135132,216.041916 238.466766,216.954544 
z"/>
<path fill="#F1F6F4" opacity="1.000000" stroke="none" 
	d="
M264.063110,125.349228 
	C263.998657,124.998383 264.419434,124.945366 264.631226,124.936447 
	C264.849945,125.604019 264.856873,126.280510 264.585541,127.027985 
	C264.247375,126.632660 264.187469,126.166367 264.063110,125.349228 
z"/>
<path fill="#C2CED0" opacity="1.000000" stroke="none" 
	d="
M294.881439,211.559387 
	C294.467133,211.982117 294.107422,212.025436 293.474915,212.060883 
	C293.517029,211.335114 293.831940,210.617249 294.436218,209.788223 
	C294.795715,210.178040 294.865845,210.679001 294.881439,211.559387 
z"/>
<path fill="#74A886" opacity="1.000000" stroke="none" 
	d="
M274.151672,127.409325 
	C274.126373,127.042442 274.589294,126.999039 274.821747,127.003647 
	C275.021027,127.695045 274.987885,128.381836 274.701416,129.137512 
	C274.357758,128.729675 274.267365,128.252945 274.151672,127.409325 
z"/>
<path fill="#F1F6F4" opacity="1.000000" stroke="none" 
	d="
M245.338928,205.934052 
	C245.347412,205.214127 245.733810,204.430511 246.410614,203.476074 
	C246.372955,204.160294 246.044891,205.015320 245.338928,205.934052 
z"/>
<path fill="#F1F6F4" opacity="1.000000" stroke="none" 
	d="
M266.036194,155.985916 
	C266.080994,155.533371 266.125793,155.080811 266.283539,154.305344 
	C266.716370,154.581146 267.036285,155.179886 266.905640,155.912781 
	C266.455139,156.046967 266.036194,155.985916 266.036194,155.985916 
z"/>
<path fill="#4B3D6C" opacity="1.000000" stroke="none" 
	d="
M265.813599,156.116638 
	C266.036194,155.985916 266.455139,156.046967 266.666809,156.044159 
	C266.820618,156.490540 266.762756,156.939728 266.577606,157.705017 
	C266.163879,157.429855 265.877441,156.838608 265.813599,156.116638 
z"/>
<path fill="#FCE6C7" opacity="1.000000" stroke="none" 
	d="
M18.982874,95.426773 
	C19.409273,95.089661 19.890287,95.029327 20.725199,95.066887 
	C20.398560,95.344368 19.718025,95.523956 18.982874,95.426773 
z"/>
<path fill="#F1F6F4" opacity="1.000000" stroke="none" 
	d="
M280.023926,61.980278 
	C279.807831,62.084724 279.386658,62.073902 279.178497,62.041397 
	C279.021393,61.566956 279.072449,61.125019 279.211792,60.359531 
	C279.613403,60.649261 279.926727,61.262543 280.023926,61.980278 
z"/>
<path fill="#F1F6F4" opacity="1.000000" stroke="none" 
	d="
M264.790466,39.068649 
	C264.345612,39.099403 263.822662,38.820198 263.178223,38.261444 
	C263.608612,38.240829 264.160492,38.499763 264.790466,39.068649 
z"/>
<path fill="#F1F6F4" opacity="1.000000" stroke="none" 
	d="
M269.061218,112.776047 
	C268.946655,112.308990 269.142426,111.706947 269.613892,110.934113 
	C269.716949,111.389229 269.544250,112.015137 269.061218,112.776047 
z"/>
<path fill="#C2CED0" opacity="1.000000" stroke="none" 
	d="
M306.846283,192.628769 
	C306.848206,192.132233 307.163574,191.666519 307.770935,191.178253 
	C307.761810,191.656998 307.460785,192.158295 306.846283,192.628769 
z"/>
<path fill="#F1F6F4" opacity="1.000000" stroke="none" 
	d="
M247.606918,202.016174 
	C247.232056,201.687439 247.299805,201.404831 247.832611,201.100220 
	C247.973328,201.348343 247.890594,201.676361 247.606918,202.016174 
z"/>
<path fill="#F1F6F4" opacity="1.000000" stroke="none" 
	d="
M263.747437,175.831650 
	C263.555023,175.646851 263.578400,175.478912 263.805298,175.158569 
	C264.122803,175.231674 264.236786,175.457199 264.350800,175.682724 
	C264.221619,175.737991 264.092407,175.793243 263.747437,175.831650 
z"/>
<path fill="#F1F6F4" opacity="1.000000" stroke="none" 
	d="
M324.583313,183.622253 
	C324.600037,183.300522 324.965363,183.051971 325.674255,182.837692 
	C325.655884,183.146469 325.293915,183.420959 324.583313,183.622253 
z"/>
<path fill="#F1F6F4" opacity="1.000000" stroke="none" 
	d="
M279.145111,58.882034 
	C278.838196,58.891319 278.706055,58.782433 278.572845,58.416759 
	C278.821136,58.361267 279.070496,58.562565 279.145111,58.882034 
z"/>
<path fill="#F1F6F4" opacity="1.000000" stroke="none" 
	d="
M275.752808,51.307007 
	C275.464417,51.342262 275.167328,51.041145 274.836609,50.416821 
	C275.116669,50.385952 275.430389,50.678291 275.752808,51.307007 
z"/>
<path fill="#F1F6F4" opacity="1.000000" stroke="none" 
	d="
M266.989624,116.987808 
	C267.102875,117.127464 267.226501,117.278969 267.350128,117.430481 
	C267.255768,117.380409 267.161407,117.330345 267.021729,117.129906 
	C266.976410,116.979530 267.000000,116.999649 266.989624,116.987808 
z"/>
<path fill="#F1F6F4" opacity="1.000000" stroke="none" 
	d="
M279.833130,93.748375 
	C279.617554,93.721161 279.522522,93.307358 279.667297,93.152328 
	C280.007538,93.175941 280.203003,93.354584 280.398438,93.533234 
	C280.281860,93.614021 280.165283,93.694809 279.833130,93.748375 
z"/>
<path fill="#FDFCFD" opacity="1.000000" stroke="none" 
	d="
M216.000092,68.298035 
	C224.997894,68.295319 233.495712,68.292046 241.993515,68.289833 
	C253.692093,68.286781 260.045197,73.930161 260.768433,85.716988 
	C261.412201,96.208687 261.284119,106.690987 257.588898,116.815582 
	C253.687210,127.505791 253.589920,138.495331 256.894531,149.234665 
	C259.993469,159.305588 258.184662,167.875336 252.549896,176.639038 
	C240.390594,195.550339 228.475235,214.644547 217.223557,234.105331 
	C207.842834,250.330154 194.625626,258.013184 175.843323,257.500305 
	C155.696365,256.950104 135.523285,257.363159 115.361626,257.340851 
	C102.688385,257.326843 95.619026,250.182129 95.621101,237.514786 
	C95.629242,187.860672 95.624603,138.206558 95.607758,88.552444 
	C95.603325,75.486443 102.370972,68.417473 115.525955,68.372368 
	C148.850357,68.258080 182.175339,68.311615 216.000092,68.298035 
M180.321655,187.531158 
	C170.406677,188.149979 162.155319,184.339386 154.944931,177.888306 
	C152.046677,175.295212 148.991272,173.710663 145.821564,177.038345 
	C142.622711,180.396652 144.440918,183.373505 147.191147,186.083206 
	C164.298203,202.938248 191.072937,203.125137 208.407242,186.524948 
	C211.324585,183.731140 213.357422,180.620361 210.126007,177.064514 
	C206.761917,173.362640 203.578690,175.532684 200.688828,178.225449 
	C195.183121,183.355667 188.812378,186.692810 180.321655,187.531158 
M128.925858,150.477173 
	C133.813568,155.930237 139.620880,157.213669 145.293213,154.094330 
	C150.232162,151.378311 152.805862,145.541031 151.357605,140.123703 
	C149.987488,134.998611 146.606537,131.780075 141.461655,130.744904 
	C136.479233,129.742416 132.204666,131.447281 129.155670,135.469101 
	C125.705124,140.020599 125.588905,144.932495 128.925858,150.477173 
M207.000214,150.254272 
	C210.725266,155.195129 215.624344,156.832535 221.488403,155.035248 
	C226.343048,153.547318 229.708710,148.884933 229.976273,143.841141 
	C230.260132,138.489975 227.279434,133.671646 222.369522,131.544724 
	C217.598373,129.477921 212.375595,130.446747 208.578110,134.103027 
	C204.407227,138.118820 203.753052,143.143646 207.000214,150.254272 
z"/>
<path fill="#F8F5F8" opacity="1.000000" stroke="none" 
	d="
M189.688538,301.778320 
	C182.451126,307.037567 175.259598,307.473358 168.007217,302.795349 
	C161.981720,298.908722 159.012772,291.445374 160.457809,284.529724 
	C162.035400,276.979736 167.781586,271.449890 175.321655,270.225464 
	C182.462906,269.065826 190.015396,272.595215 193.662384,278.796387 
	C197.480545,285.288605 196.843338,293.424652 192.023331,299.363190 
	C191.396240,300.135803 190.651505,300.812927 189.688538,301.778320 
z"/>
<path fill="#E5E0EA" opacity="1.000000" stroke="none" 
	d="
M206.009476,47.073055 
	C207.449509,48.344833 208.889557,49.616611 210.329605,50.888390 
	C208.645477,51.850758 206.972519,53.625397 205.275452,53.648766 
	C189.783356,53.862125 174.287079,53.776688 158.792023,53.764259 
	C154.952377,53.761177 152.915771,52.404526 155.385468,47.899803 
	C157.948349,47.481384 159.926102,47.347946 161.904678,47.334423 
	C176.606186,47.233917 191.307861,47.157223 206.009476,47.073055 
z"/>
<path fill="#3D315F" opacity="1.000000" stroke="none" 
	d="
M205.925690,46.675117 
	C191.307861,47.157223 176.606186,47.233917 161.904678,47.334423 
	C159.926102,47.347946 157.948349,47.481384 155.506348,47.595024 
	C156.459793,46.753906 157.884476,45.111580 159.293198,45.125149 
	C168.058060,45.209572 176.817703,45.851044 185.582413,45.927731 
	C190.852493,45.973843 196.125412,45.221203 201.404007,45.069855 
	C202.870560,45.027809 204.361923,45.850967 205.925690,46.675117 
z"/>
<path fill="#74A886" opacity="1.000000" stroke="none" 
	d="
M281.393616,111.980141 
	C281.395142,111.318794 281.734161,110.604485 282.364166,109.773926 
	C282.347168,110.414177 282.039154,111.170677 281.393616,111.980141 
z"/>
<path fill="#74A886" opacity="1.000000" stroke="none" 
	d="
M283.393555,109.008698 
	C283.470825,108.361351 283.870941,107.679558 284.584045,106.948418 
	C284.503510,107.590797 284.109955,108.282524 283.393555,109.008698 
z"/>
<path fill="#74A886" opacity="1.000000" stroke="none" 
	d="
M285.231140,106.900665 
	C285.371185,106.259781 285.843353,105.622498 286.629089,104.953072 
	C286.482849,105.582047 286.023071,106.243156 285.231140,106.900665 
z"/>
<path fill="#74A886" opacity="1.000000" stroke="none" 
	d="
M277.668274,119.052681 
	C277.576385,118.413185 277.793030,117.661224 278.280762,116.756256 
	C278.360168,117.382240 278.168457,118.161232 277.668274,119.052681 
z"/>
<path fill="#74A886" opacity="1.000000" stroke="none" 
	d="
M258.480499,202.020355 
	C258.472595,201.363083 258.793915,200.640656 259.407715,199.804413 
	C259.403381,200.445496 259.106567,201.200363 258.480499,202.020355 
z"/>
<path fill="#74A886" opacity="1.000000" stroke="none" 
	d="
M277.307495,155.861084 
	C276.847046,155.437820 276.599335,154.887421 276.517151,154.056274 
	C276.961853,154.428345 277.240997,155.081146 277.307495,155.861084 
z"/>
<path fill="#74A886" opacity="1.000000" stroke="none" 
	d="
M270.482819,183.024841 
	C270.467804,182.374771 270.775543,181.663773 271.372925,180.854370 
	C271.376862,181.491959 271.091217,182.227921 270.482819,183.024841 
z"/>
<path fill="#74A886" opacity="1.000000" stroke="none" 
	d="
M271.991852,180.630951 
	C271.633911,180.366821 271.696838,180.089478 272.090088,179.721710 
	C272.268768,179.926285 272.266205,180.255096 271.991852,180.630951 
z"/>
<path fill="#DFA05D" opacity="1.000000" stroke="none" 
	d="
M28.258333,104.945190 
	C28.717007,103.096107 29.537861,101.233154 30.628010,99.172943 
	C34.810551,102.747025 31.645929,103.812569 28.258333,104.945190 
z"/>
<path fill="#DFA05D" opacity="1.000000" stroke="none" 
	d="
M42.672157,102.997437 
	C42.093788,104.104538 41.144707,105.198402 40.018963,106.547287 
	C39.447895,106.888939 39.053490,106.975578 38.357468,107.094215 
	C39.471050,105.745544 40.886246,104.364868 42.672157,102.997437 
z"/>
<path fill="#47386E" opacity="1.000000" stroke="none" 
	d="
M180.780899,187.515381 
	C188.812378,186.692810 195.183121,183.355667 200.688828,178.225449 
	C203.578690,175.532684 206.761917,173.362640 210.126007,177.064514 
	C213.357422,180.620361 211.324585,183.731140 208.407242,186.524948 
	C191.072937,203.125137 164.298203,202.938248 147.191147,186.083206 
	C144.440918,183.373505 142.622711,180.396652 145.821564,177.038345 
	C148.991272,173.710663 152.046677,175.295212 154.944931,177.888306 
	C162.155319,184.339386 170.406677,188.149979 180.780899,187.515381 
z"/>
<path fill="#45346D" opacity="1.000000" stroke="none" 
	d="
M128.704132,150.180328 
	C125.588905,144.932495 125.705124,140.020599 129.155670,135.469101 
	C132.204666,131.447281 136.479233,129.742416 141.461655,130.744904 
	C146.606537,131.780075 149.987488,134.998611 151.357605,140.123703 
	C152.805862,145.541031 150.232162,151.378311 145.293213,154.094330 
	C139.620880,157.213669 133.813568,155.930237 128.704132,150.180328 
z"/>
<path fill="#46356D" opacity="1.000000" stroke="none" 
	d="
M206.779144,149.936829 
	C203.753052,143.143646 204.407227,138.118820 208.578110,134.103027 
	C212.375595,130.446747 217.598373,129.477921 222.369522,131.544724 
	C227.279434,133.671646 230.260132,138.489975 229.976273,143.841141 
	C229.708710,148.884933 226.343048,153.547318 221.488403,155.035248 
	C215.624344,156.832535 210.725266,155.195129 206.779144,149.936829 
z"/>
</svg>